<mxfile host="app.diagrams.net" modified="2021-03-16T14:03:26.888Z" agent="5.0 (Windows NT 10.0; Win64; x64) AppleWebKit/537.36 (KHTML, like Gecko) Chrome/89.0.4389.82 Safari/537.36 Edg/89.0.774.50" etag="JKeDJwbDDFP5lppQsezl" version="14.4.4" type="github" pages="2">
  <diagram id="J1pVOA-ZvW1FpZxHNtI7" name="Page-8">
    <mxGraphModel dx="1741" dy="1595" grid="1" gridSize="10" guides="1" tooltips="1" connect="1" arrows="1" fold="1" page="1" pageScale="1" pageWidth="850" pageHeight="1100" math="0" shadow="0">
      <root>
        <mxCell id="-JLZlp7w4YEet5CklS7g-0" />
        <mxCell id="-JLZlp7w4YEet5CklS7g-1" parent="-JLZlp7w4YEet5CklS7g-0" />
        <mxCell id="S5fxNFpfdp4Qe1ETzRrZ-0" value="Check duplication" style="ellipse;whiteSpace=wrap;html=1;" parent="-JLZlp7w4YEet5CklS7g-1" vertex="1">
          <mxGeometry x="80" y="-260" width="120" height="70" as="geometry" />
        </mxCell>
        <mxCell id="5r7ipQPy4vx4rVx7mWua-0" style="rounded=0;orthogonalLoop=1;jettySize=auto;html=1;entryX=0;entryY=0.5;entryDx=0;entryDy=0;" edge="1" parent="-JLZlp7w4YEet5CklS7g-1" source="S5fxNFpfdp4Qe1ETzRrZ-1" target="S5fxNFpfdp4Qe1ETzRrZ-22">
          <mxGeometry relative="1" as="geometry" />
        </mxCell>
        <mxCell id="5r7ipQPy4vx4rVx7mWua-1" style="edgeStyle=none;rounded=0;orthogonalLoop=1;jettySize=auto;html=1;" edge="1" parent="-JLZlp7w4YEet5CklS7g-1" source="S5fxNFpfdp4Qe1ETzRrZ-1" target="S5fxNFpfdp4Qe1ETzRrZ-23">
          <mxGeometry relative="1" as="geometry" />
        </mxCell>
        <mxCell id="5r7ipQPy4vx4rVx7mWua-2" style="edgeStyle=none;rounded=0;orthogonalLoop=1;jettySize=auto;html=1;" edge="1" parent="-JLZlp7w4YEet5CklS7g-1" source="S5fxNFpfdp4Qe1ETzRrZ-1" target="S5fxNFpfdp4Qe1ETzRrZ-24">
          <mxGeometry relative="1" as="geometry" />
        </mxCell>
        <mxCell id="5r7ipQPy4vx4rVx7mWua-13" style="edgeStyle=none;rounded=0;orthogonalLoop=1;jettySize=auto;html=1;entryX=0;entryY=1;entryDx=0;entryDy=0;exitX=1;exitY=0;exitDx=0;exitDy=0;" edge="1" parent="-JLZlp7w4YEet5CklS7g-1" source="S5fxNFpfdp4Qe1ETzRrZ-1" target="5r7ipQPy4vx4rVx7mWua-7">
          <mxGeometry relative="1" as="geometry" />
        </mxCell>
        <mxCell id="S5fxNFpfdp4Qe1ETzRrZ-1" value="log in" style="ellipse;whiteSpace=wrap;html=1;" parent="-JLZlp7w4YEet5CklS7g-1" vertex="1">
          <mxGeometry x="240" y="330" width="120" height="80" as="geometry" />
        </mxCell>
        <mxCell id="5r7ipQPy4vx4rVx7mWua-26" style="edgeStyle=none;rounded=0;orthogonalLoop=1;jettySize=auto;html=1;entryX=0;entryY=0.5;entryDx=0;entryDy=0;dashed=1;dashPattern=1 4;" edge="1" parent="-JLZlp7w4YEet5CklS7g-1" source="S5fxNFpfdp4Qe1ETzRrZ-3" target="5r7ipQPy4vx4rVx7mWua-18">
          <mxGeometry relative="1" as="geometry" />
        </mxCell>
        <mxCell id="5r7ipQPy4vx4rVx7mWua-46" value="inclusive" style="edgeLabel;html=1;align=center;verticalAlign=middle;resizable=0;points=[];" vertex="1" connectable="0" parent="5r7ipQPy4vx4rVx7mWua-26">
          <mxGeometry x="-0.1861" relative="1" as="geometry">
            <mxPoint as="offset" />
          </mxGeometry>
        </mxCell>
        <mxCell id="5r7ipQPy4vx4rVx7mWua-27" value="inclusive" style="edgeStyle=none;rounded=0;orthogonalLoop=1;jettySize=auto;html=1;dashed=1;dashPattern=1 4;" edge="1" parent="-JLZlp7w4YEet5CklS7g-1" source="S5fxNFpfdp4Qe1ETzRrZ-3" target="5r7ipQPy4vx4rVx7mWua-19">
          <mxGeometry relative="1" as="geometry" />
        </mxCell>
        <mxCell id="5r7ipQPy4vx4rVx7mWua-43" style="edgeStyle=none;rounded=0;orthogonalLoop=1;jettySize=auto;html=1;dashed=1;dashPattern=1 4;" edge="1" parent="-JLZlp7w4YEet5CklS7g-1" source="S5fxNFpfdp4Qe1ETzRrZ-3" target="5r7ipQPy4vx4rVx7mWua-20">
          <mxGeometry relative="1" as="geometry" />
        </mxCell>
        <mxCell id="5r7ipQPy4vx4rVx7mWua-45" value="inclusive" style="edgeLabel;html=1;align=center;verticalAlign=middle;resizable=0;points=[];" vertex="1" connectable="0" parent="5r7ipQPy4vx4rVx7mWua-43">
          <mxGeometry x="-0.1323" y="-2" relative="1" as="geometry">
            <mxPoint as="offset" />
          </mxGeometry>
        </mxCell>
        <mxCell id="S5fxNFpfdp4Qe1ETzRrZ-3" value="update details" style="ellipse;whiteSpace=wrap;html=1;" parent="-JLZlp7w4YEet5CklS7g-1" vertex="1">
          <mxGeometry x="220" y="820" width="120" height="80" as="geometry" />
        </mxCell>
        <mxCell id="5r7ipQPy4vx4rVx7mWua-24" style="edgeStyle=none;rounded=0;orthogonalLoop=1;jettySize=auto;html=1;entryX=0;entryY=0.5;entryDx=0;entryDy=0;dashed=1;dashPattern=1 4;" edge="1" parent="-JLZlp7w4YEet5CklS7g-1" source="S5fxNFpfdp4Qe1ETzRrZ-4" target="5r7ipQPy4vx4rVx7mWua-21">
          <mxGeometry relative="1" as="geometry" />
        </mxCell>
        <mxCell id="5r7ipQPy4vx4rVx7mWua-47" value="inclusive" style="edgeLabel;html=1;align=center;verticalAlign=middle;resizable=0;points=[];" vertex="1" connectable="0" parent="5r7ipQPy4vx4rVx7mWua-24">
          <mxGeometry x="-0.3725" y="-2" relative="1" as="geometry">
            <mxPoint as="offset" />
          </mxGeometry>
        </mxCell>
        <mxCell id="5r7ipQPy4vx4rVx7mWua-28" style="edgeStyle=none;rounded=0;orthogonalLoop=1;jettySize=auto;html=1;entryX=0.158;entryY=0.5;entryDx=0;entryDy=0;entryPerimeter=0;dashed=1;dashPattern=1 4;" edge="1" parent="-JLZlp7w4YEet5CklS7g-1" source="S5fxNFpfdp4Qe1ETzRrZ-4" target="5r7ipQPy4vx4rVx7mWua-20">
          <mxGeometry relative="1" as="geometry" />
        </mxCell>
        <mxCell id="5r7ipQPy4vx4rVx7mWua-44" value="inclusive" style="edgeLabel;html=1;align=center;verticalAlign=middle;resizable=0;points=[];" vertex="1" connectable="0" parent="5r7ipQPy4vx4rVx7mWua-28">
          <mxGeometry x="0.1892" y="2" relative="1" as="geometry">
            <mxPoint as="offset" />
          </mxGeometry>
        </mxCell>
        <mxCell id="S5fxNFpfdp4Qe1ETzRrZ-4" value="post" style="ellipse;whiteSpace=wrap;html=1;" parent="-JLZlp7w4YEet5CklS7g-1" vertex="1">
          <mxGeometry x="340" y="560" width="120" height="80" as="geometry" />
        </mxCell>
        <mxCell id="S5fxNFpfdp4Qe1ETzRrZ-11" style="rounded=0;orthogonalLoop=1;jettySize=auto;html=1;entryX=0;entryY=0.5;entryDx=0;entryDy=0;" parent="-JLZlp7w4YEet5CklS7g-1" source="S5fxNFpfdp4Qe1ETzRrZ-5" target="S5fxNFpfdp4Qe1ETzRrZ-10" edge="1">
          <mxGeometry relative="1" as="geometry" />
        </mxCell>
        <mxCell id="S5fxNFpfdp4Qe1ETzRrZ-19" style="edgeStyle=none;rounded=0;orthogonalLoop=1;jettySize=auto;html=1;entryX=0.008;entryY=0.613;entryDx=0;entryDy=0;entryPerimeter=0;" parent="-JLZlp7w4YEet5CklS7g-1" source="S5fxNFpfdp4Qe1ETzRrZ-5" target="S5fxNFpfdp4Qe1ETzRrZ-1" edge="1">
          <mxGeometry relative="1" as="geometry" />
        </mxCell>
        <mxCell id="S5fxNFpfdp4Qe1ETzRrZ-20" style="edgeStyle=none;rounded=0;orthogonalLoop=1;jettySize=auto;html=1;entryX=0;entryY=0.5;entryDx=0;entryDy=0;" parent="-JLZlp7w4YEet5CklS7g-1" source="S5fxNFpfdp4Qe1ETzRrZ-5" target="S5fxNFpfdp4Qe1ETzRrZ-3" edge="1">
          <mxGeometry relative="1" as="geometry" />
        </mxCell>
        <mxCell id="S5fxNFpfdp4Qe1ETzRrZ-21" style="edgeStyle=none;rounded=0;orthogonalLoop=1;jettySize=auto;html=1;entryX=0;entryY=0.5;entryDx=0;entryDy=0;" parent="-JLZlp7w4YEet5CklS7g-1" source="S5fxNFpfdp4Qe1ETzRrZ-5" target="S5fxNFpfdp4Qe1ETzRrZ-4" edge="1">
          <mxGeometry relative="1" as="geometry">
            <mxPoint x="250" y="630" as="targetPoint" />
          </mxGeometry>
        </mxCell>
        <mxCell id="S5fxNFpfdp4Qe1ETzRrZ-5" value="User" style="shape=umlActor;verticalLabelPosition=bottom;verticalAlign=top;html=1;outlineConnect=0;" parent="-JLZlp7w4YEet5CklS7g-1" vertex="1">
          <mxGeometry x="90" y="350" width="30" height="60" as="geometry" />
        </mxCell>
        <mxCell id="S5fxNFpfdp4Qe1ETzRrZ-6" value="Check Data Validation" style="ellipse;whiteSpace=wrap;html=1;" parent="-JLZlp7w4YEet5CklS7g-1" vertex="1">
          <mxGeometry x="650" y="40" width="110" height="60" as="geometry" />
        </mxCell>
        <mxCell id="S5fxNFpfdp4Qe1ETzRrZ-7" value="SMS Verification" style="ellipse;whiteSpace=wrap;html=1;" parent="-JLZlp7w4YEet5CklS7g-1" vertex="1">
          <mxGeometry x="160" y="-130" width="120" height="60" as="geometry" />
        </mxCell>
        <mxCell id="S5fxNFpfdp4Qe1ETzRrZ-15" style="edgeStyle=none;rounded=0;orthogonalLoop=1;jettySize=auto;html=1;dashed=1;dashPattern=1 4;exitX=0.278;exitY=1.003;exitDx=0;exitDy=0;exitPerimeter=0;" parent="-JLZlp7w4YEet5CklS7g-1" source="5r7ipQPy4vx4rVx7mWua-49" target="S5fxNFpfdp4Qe1ETzRrZ-7" edge="1">
          <mxGeometry relative="1" as="geometry">
            <mxPoint x="75" y="-240" as="sourcePoint" />
          </mxGeometry>
        </mxCell>
        <mxCell id="S5fxNFpfdp4Qe1ETzRrZ-18" value="inclusive" style="edgeLabel;html=1;align=center;verticalAlign=middle;resizable=0;points=[];" parent="S5fxNFpfdp4Qe1ETzRrZ-15" vertex="1" connectable="0">
          <mxGeometry x="-0.355" y="3" relative="1" as="geometry">
            <mxPoint as="offset" />
          </mxGeometry>
        </mxCell>
        <mxCell id="5r7ipQPy4vx4rVx7mWua-31" value="inclusive" style="edgeStyle=none;rounded=0;orthogonalLoop=1;jettySize=auto;html=1;dashed=1;dashPattern=1 4;" edge="1" parent="-JLZlp7w4YEet5CklS7g-1" source="S5fxNFpfdp4Qe1ETzRrZ-10" target="5r7ipQPy4vx4rVx7mWua-29">
          <mxGeometry relative="1" as="geometry" />
        </mxCell>
        <mxCell id="5r7ipQPy4vx4rVx7mWua-32" value="inclusive" style="edgeStyle=none;rounded=0;orthogonalLoop=1;jettySize=auto;html=1;entryX=0.5;entryY=1;entryDx=0;entryDy=0;dashed=1;dashPattern=1 4;exitX=1;exitY=0;exitDx=0;exitDy=0;" edge="1" parent="-JLZlp7w4YEet5CklS7g-1" source="S5fxNFpfdp4Qe1ETzRrZ-10" target="5r7ipQPy4vx4rVx7mWua-30">
          <mxGeometry relative="1" as="geometry">
            <mxPoint x="392.68652190845387" y="149.99826178874758" as="sourcePoint" />
          </mxGeometry>
        </mxCell>
        <mxCell id="S5fxNFpfdp4Qe1ETzRrZ-10" value="Registration" style="ellipse;whiteSpace=wrap;html=1;" parent="-JLZlp7w4YEet5CklS7g-1" vertex="1">
          <mxGeometry x="230" y="150" width="120" height="80" as="geometry" />
        </mxCell>
        <mxCell id="5r7ipQPy4vx4rVx7mWua-4" style="edgeStyle=none;rounded=0;orthogonalLoop=1;jettySize=auto;html=1;entryX=0.022;entryY=0.342;entryDx=0;entryDy=0;entryPerimeter=0;dashed=1;dashPattern=1 4;" edge="1" parent="-JLZlp7w4YEet5CklS7g-1" source="S5fxNFpfdp4Qe1ETzRrZ-22" target="5r7ipQPy4vx4rVx7mWua-3">
          <mxGeometry relative="1" as="geometry" />
        </mxCell>
        <mxCell id="5r7ipQPy4vx4rVx7mWua-8" value="inclusive" style="edgeLabel;html=1;align=center;verticalAlign=middle;resizable=0;points=[];" vertex="1" connectable="0" parent="5r7ipQPy4vx4rVx7mWua-4">
          <mxGeometry x="-0.3137" y="-2" relative="1" as="geometry">
            <mxPoint as="offset" />
          </mxGeometry>
        </mxCell>
        <mxCell id="S5fxNFpfdp4Qe1ETzRrZ-22" value="Username login" style="ellipse;whiteSpace=wrap;html=1;" parent="-JLZlp7w4YEet5CklS7g-1" vertex="1">
          <mxGeometry x="530" y="270" width="105" height="60" as="geometry" />
        </mxCell>
        <mxCell id="5r7ipQPy4vx4rVx7mWua-5" style="edgeStyle=none;rounded=0;orthogonalLoop=1;jettySize=auto;html=1;entryX=0;entryY=0.5;entryDx=0;entryDy=0;dashed=1;dashPattern=1 4;" edge="1" parent="-JLZlp7w4YEet5CklS7g-1" source="S5fxNFpfdp4Qe1ETzRrZ-23" target="5r7ipQPy4vx4rVx7mWua-3">
          <mxGeometry relative="1" as="geometry" />
        </mxCell>
        <mxCell id="5r7ipQPy4vx4rVx7mWua-9" value="inclusive" style="edgeLabel;html=1;align=center;verticalAlign=middle;resizable=0;points=[];" vertex="1" connectable="0" parent="5r7ipQPy4vx4rVx7mWua-5">
          <mxGeometry x="-0.3395" relative="1" as="geometry">
            <mxPoint x="-1" as="offset" />
          </mxGeometry>
        </mxCell>
        <mxCell id="S5fxNFpfdp4Qe1ETzRrZ-23" value="SMS login" style="ellipse;whiteSpace=wrap;html=1;" parent="-JLZlp7w4YEet5CklS7g-1" vertex="1">
          <mxGeometry x="540" y="330" width="105" height="60" as="geometry" />
        </mxCell>
        <mxCell id="5r7ipQPy4vx4rVx7mWua-6" style="edgeStyle=none;rounded=0;orthogonalLoop=1;jettySize=auto;html=1;entryX=0;entryY=1;entryDx=0;entryDy=0;dashed=1;dashPattern=1 4;" edge="1" parent="-JLZlp7w4YEet5CklS7g-1" source="S5fxNFpfdp4Qe1ETzRrZ-24" target="5r7ipQPy4vx4rVx7mWua-3">
          <mxGeometry relative="1" as="geometry" />
        </mxCell>
        <mxCell id="5r7ipQPy4vx4rVx7mWua-10" value="inclusive" style="edgeLabel;html=1;align=center;verticalAlign=middle;resizable=0;points=[];" vertex="1" connectable="0" parent="5r7ipQPy4vx4rVx7mWua-6">
          <mxGeometry x="-0.2675" relative="1" as="geometry">
            <mxPoint as="offset" />
          </mxGeometry>
        </mxCell>
        <mxCell id="S5fxNFpfdp4Qe1ETzRrZ-24" value="Email login" style="ellipse;whiteSpace=wrap;html=1;" parent="-JLZlp7w4YEet5CklS7g-1" vertex="1">
          <mxGeometry x="570" y="400" width="100" height="50" as="geometry" />
        </mxCell>
        <mxCell id="S5fxNFpfdp4Qe1ETzRrZ-25" value="Email Verification" style="ellipse;whiteSpace=wrap;html=1;" parent="-JLZlp7w4YEet5CklS7g-1" vertex="1">
          <mxGeometry x="497.5" y="-110" width="110" height="60" as="geometry" />
        </mxCell>
        <mxCell id="5r7ipQPy4vx4rVx7mWua-3" value="Data Authentication" style="ellipse;whiteSpace=wrap;html=1;" vertex="1" parent="-JLZlp7w4YEet5CklS7g-1">
          <mxGeometry x="780" y="300" width="120" height="80" as="geometry" />
        </mxCell>
        <mxCell id="5r7ipQPy4vx4rVx7mWua-16" value="inclusive" style="edgeStyle=none;rounded=0;orthogonalLoop=1;jettySize=auto;html=1;dashed=1;dashPattern=1 4;" edge="1" parent="-JLZlp7w4YEet5CklS7g-1" source="5r7ipQPy4vx4rVx7mWua-7" target="S5fxNFpfdp4Qe1ETzRrZ-25">
          <mxGeometry relative="1" as="geometry" />
        </mxCell>
        <mxCell id="5r7ipQPy4vx4rVx7mWua-17" value="inclusive" style="edgeStyle=none;rounded=0;orthogonalLoop=1;jettySize=auto;html=1;entryX=1;entryY=1;entryDx=0;entryDy=0;dashed=1;dashPattern=1 4;" edge="1" parent="-JLZlp7w4YEet5CklS7g-1" source="5r7ipQPy4vx4rVx7mWua-7" target="S5fxNFpfdp4Qe1ETzRrZ-6">
          <mxGeometry relative="1" as="geometry" />
        </mxCell>
        <mxCell id="5r7ipQPy4vx4rVx7mWua-7" value="Reset Password" style="ellipse;whiteSpace=wrap;html=1;" vertex="1" parent="-JLZlp7w4YEet5CklS7g-1">
          <mxGeometry x="610" y="190" width="90" height="50" as="geometry" />
        </mxCell>
        <mxCell id="5r7ipQPy4vx4rVx7mWua-18" value="Display All Info" style="ellipse;whiteSpace=wrap;html=1;" vertex="1" parent="-JLZlp7w4YEet5CklS7g-1">
          <mxGeometry x="220" y="660" width="107" height="60" as="geometry" />
        </mxCell>
        <mxCell id="5r7ipQPy4vx4rVx7mWua-19" value="Edit Info" style="ellipse;whiteSpace=wrap;html=1;" vertex="1" parent="-JLZlp7w4YEet5CklS7g-1">
          <mxGeometry x="310" y="730" width="95" height="60" as="geometry" />
        </mxCell>
        <mxCell id="5r7ipQPy4vx4rVx7mWua-20" value="Info Validation" style="ellipse;whiteSpace=wrap;html=1;" vertex="1" parent="-JLZlp7w4YEet5CklS7g-1">
          <mxGeometry x="535" y="680" width="95" height="60" as="geometry" />
        </mxCell>
        <mxCell id="5r7ipQPy4vx4rVx7mWua-21" value="Create New Request" style="ellipse;whiteSpace=wrap;html=1;" vertex="1" parent="-JLZlp7w4YEet5CklS7g-1">
          <mxGeometry x="540" y="530" width="100" height="70" as="geometry" />
        </mxCell>
        <mxCell id="5r7ipQPy4vx4rVx7mWua-33" value="inclusive" style="edgeStyle=none;rounded=0;orthogonalLoop=1;jettySize=auto;html=1;entryX=0.408;entryY=1.027;entryDx=0;entryDy=0;entryPerimeter=0;dashed=1;dashPattern=1 4;" edge="1" parent="-JLZlp7w4YEet5CklS7g-1" source="5r7ipQPy4vx4rVx7mWua-48" target="S5fxNFpfdp4Qe1ETzRrZ-0">
          <mxGeometry relative="1" as="geometry">
            <mxPoint x="320" y="-300" as="sourcePoint" />
          </mxGeometry>
        </mxCell>
        <mxCell id="5r7ipQPy4vx4rVx7mWua-35" style="edgeStyle=none;rounded=0;orthogonalLoop=1;jettySize=auto;html=1;dashed=1;dashPattern=1 4;" edge="1" parent="-JLZlp7w4YEet5CklS7g-1" target="5r7ipQPy4vx4rVx7mWua-34">
          <mxGeometry relative="1" as="geometry">
            <mxPoint x="380" y="-40" as="sourcePoint" />
          </mxGeometry>
        </mxCell>
        <mxCell id="5r7ipQPy4vx4rVx7mWua-42" value="inclusive" style="edgeLabel;html=1;align=center;verticalAlign=middle;resizable=0;points=[];" vertex="1" connectable="0" parent="5r7ipQPy4vx4rVx7mWua-35">
          <mxGeometry x="0.2275" y="-1" relative="1" as="geometry">
            <mxPoint as="offset" />
          </mxGeometry>
        </mxCell>
        <mxCell id="5r7ipQPy4vx4rVx7mWua-40" value="inclusive" style="edgeStyle=none;rounded=0;orthogonalLoop=1;jettySize=auto;html=1;entryX=0;entryY=0.5;entryDx=0;entryDy=0;dashed=1;dashPattern=1 4;exitX=1;exitY=0;exitDx=0;exitDy=0;" edge="1" parent="-JLZlp7w4YEet5CklS7g-1" source="5r7ipQPy4vx4rVx7mWua-50" target="S5fxNFpfdp4Qe1ETzRrZ-25">
          <mxGeometry relative="1" as="geometry">
            <mxPoint x="430" y="-180" as="sourcePoint" />
          </mxGeometry>
        </mxCell>
        <mxCell id="5r7ipQPy4vx4rVx7mWua-29" value="Create ID" style="ellipse;whiteSpace=wrap;html=1;" vertex="1" parent="-JLZlp7w4YEet5CklS7g-1">
          <mxGeometry x="160" y="30.000000000000004" width="120" height="60" as="geometry" />
        </mxCell>
        <mxCell id="5r7ipQPy4vx4rVx7mWua-36" value="inclusvie" style="edgeStyle=none;rounded=0;orthogonalLoop=1;jettySize=auto;html=1;dashed=1;dashPattern=1 4;" edge="1" parent="-JLZlp7w4YEet5CklS7g-1" source="5r7ipQPy4vx4rVx7mWua-30" target="5r7ipQPy4vx4rVx7mWua-34">
          <mxGeometry relative="1" as="geometry" />
        </mxCell>
        <mxCell id="5r7ipQPy4vx4rVx7mWua-30" value="Create Password" style="ellipse;whiteSpace=wrap;html=1;" vertex="1" parent="-JLZlp7w4YEet5CklS7g-1">
          <mxGeometry x="310" y="70" width="125" height="60" as="geometry" />
        </mxCell>
        <mxCell id="5r7ipQPy4vx4rVx7mWua-34" value="Check Data Validation" style="ellipse;whiteSpace=wrap;html=1;" vertex="1" parent="-JLZlp7w4YEet5CklS7g-1">
          <mxGeometry x="387.5" y="-20" width="110" height="60" as="geometry" />
        </mxCell>
        <mxCell id="5r7ipQPy4vx4rVx7mWua-48" value="Username" style="ellipse;whiteSpace=wrap;html=1;" vertex="1" parent="-JLZlp7w4YEet5CklS7g-1">
          <mxGeometry x="-20" y="-50" width="110" height="50" as="geometry" />
        </mxCell>
        <mxCell id="5r7ipQPy4vx4rVx7mWua-51" style="edgeStyle=none;rounded=0;orthogonalLoop=1;jettySize=auto;html=1;entryX=0.772;entryY=0.971;entryDx=0;entryDy=0;entryPerimeter=0;dashed=1;dashPattern=1 4;" edge="1" parent="-JLZlp7w4YEet5CklS7g-1" source="5r7ipQPy4vx4rVx7mWua-49" target="S5fxNFpfdp4Qe1ETzRrZ-0">
          <mxGeometry relative="1" as="geometry" />
        </mxCell>
        <mxCell id="5r7ipQPy4vx4rVx7mWua-49" value="Phone No." style="ellipse;whiteSpace=wrap;html=1;" vertex="1" parent="-JLZlp7w4YEet5CklS7g-1">
          <mxGeometry x="110" y="-55" width="110" height="55" as="geometry" />
        </mxCell>
        <mxCell id="5r7ipQPy4vx4rVx7mWua-52" style="edgeStyle=none;rounded=0;orthogonalLoop=1;jettySize=auto;html=1;entryX=1.027;entryY=0.691;entryDx=0;entryDy=0;entryPerimeter=0;dashed=1;dashPattern=1 4;" edge="1" parent="-JLZlp7w4YEet5CklS7g-1" source="5r7ipQPy4vx4rVx7mWua-50" target="S5fxNFpfdp4Qe1ETzRrZ-0">
          <mxGeometry relative="1" as="geometry" />
        </mxCell>
        <mxCell id="5r7ipQPy4vx4rVx7mWua-50" value="Email Address" style="ellipse;whiteSpace=wrap;html=1;" vertex="1" parent="-JLZlp7w4YEet5CklS7g-1">
          <mxGeometry x="235" y="-70" width="110" height="50" as="geometry" />
        </mxCell>
      </root>
    </mxGraphModel>
  </diagram>
  <diagram id="XQ_CEOxAtQVZM_UZb1o9" name="Page-2">
    <mxGraphModel dx="2112" dy="702" grid="1" gridSize="10" guides="1" tooltips="1" connect="1" arrows="1" fold="1" page="1" pageScale="1" pageWidth="850" pageHeight="1100" math="0" shadow="0">
      <root>
        <mxCell id="x_KAMn2RpfmGx4XSt-r3-0" />
        <mxCell id="x_KAMn2RpfmGx4XSt-r3-1" parent="x_KAMn2RpfmGx4XSt-r3-0" />
        <mxCell id="wo1Fu706Tqra_tc3UT-4-42" value="" style="shape=folder;fontStyle=1;spacingTop=10;tabWidth=40;tabHeight=14;tabPosition=left;html=1;fontSize=19;" vertex="1" parent="x_KAMn2RpfmGx4XSt-r3-1">
          <mxGeometry x="-30" y="540" width="360" height="260" as="geometry" />
        </mxCell>
        <mxCell id="x_KAMn2RpfmGx4XSt-r3-2" value="" style="shape=folder;fontStyle=1;spacingTop=10;tabWidth=40;tabHeight=14;tabPosition=left;html=1;" vertex="1" parent="x_KAMn2RpfmGx4XSt-r3-1">
          <mxGeometry x="190" y="70" width="540" height="340" as="geometry" />
        </mxCell>
        <mxCell id="x_KAMn2RpfmGx4XSt-r3-17" style="edgeStyle=none;rounded=0;orthogonalLoop=1;jettySize=auto;html=1;startArrow=block;startFill=0;endArrow=none;endFill=0;" edge="1" parent="x_KAMn2RpfmGx4XSt-r3-1" source="x_KAMn2RpfmGx4XSt-r3-3" target="x_KAMn2RpfmGx4XSt-r3-4">
          <mxGeometry relative="1" as="geometry" />
        </mxCell>
        <mxCell id="x_KAMn2RpfmGx4XSt-r3-18" style="edgeStyle=none;rounded=0;orthogonalLoop=1;jettySize=auto;html=1;entryX=0.25;entryY=0;entryDx=0;entryDy=0;startArrow=block;startFill=0;endArrow=none;endFill=0;" edge="1" parent="x_KAMn2RpfmGx4XSt-r3-1" source="x_KAMn2RpfmGx4XSt-r3-3" target="x_KAMn2RpfmGx4XSt-r3-5">
          <mxGeometry relative="1" as="geometry" />
        </mxCell>
        <mxCell id="x_KAMn2RpfmGx4XSt-r3-3" value="User Account" style="html=1;" vertex="1" parent="x_KAMn2RpfmGx4XSt-r3-1">
          <mxGeometry x="405" y="150" width="110" height="50" as="geometry" />
        </mxCell>
        <mxCell id="x_KAMn2RpfmGx4XSt-r3-9" style="edgeStyle=none;rounded=0;orthogonalLoop=1;jettySize=auto;html=1;entryX=0.5;entryY=0;entryDx=0;entryDy=0;startArrow=classic;startFill=1;endArrow=none;endFill=0;" edge="1" parent="x_KAMn2RpfmGx4XSt-r3-1" source="x_KAMn2RpfmGx4XSt-r3-4" target="x_KAMn2RpfmGx4XSt-r3-6">
          <mxGeometry relative="1" as="geometry" />
        </mxCell>
        <mxCell id="x_KAMn2RpfmGx4XSt-r3-10" style="edgeStyle=none;rounded=0;orthogonalLoop=1;jettySize=auto;html=1;entryX=0.5;entryY=0;entryDx=0;entryDy=0;startArrow=classic;startFill=1;endArrow=none;endFill=0;" edge="1" parent="x_KAMn2RpfmGx4XSt-r3-1" source="x_KAMn2RpfmGx4XSt-r3-4" target="x_KAMn2RpfmGx4XSt-r3-7">
          <mxGeometry relative="1" as="geometry" />
        </mxCell>
        <mxCell id="x_KAMn2RpfmGx4XSt-r3-11" style="edgeStyle=none;rounded=0;orthogonalLoop=1;jettySize=auto;html=1;entryX=0.25;entryY=0;entryDx=0;entryDy=0;startArrow=classic;startFill=1;endArrow=none;endFill=0;" edge="1" parent="x_KAMn2RpfmGx4XSt-r3-1" source="x_KAMn2RpfmGx4XSt-r3-4" target="x_KAMn2RpfmGx4XSt-r3-8">
          <mxGeometry relative="1" as="geometry" />
        </mxCell>
        <mxCell id="x_KAMn2RpfmGx4XSt-r3-4" value="UserId" style="html=1;" vertex="1" parent="x_KAMn2RpfmGx4XSt-r3-1">
          <mxGeometry x="330" y="250" width="110" height="50" as="geometry" />
        </mxCell>
        <mxCell id="x_KAMn2RpfmGx4XSt-r3-5" value="Password" style="html=1;" vertex="1" parent="x_KAMn2RpfmGx4XSt-r3-1">
          <mxGeometry x="570" y="260" width="110" height="50" as="geometry" />
        </mxCell>
        <mxCell id="x_KAMn2RpfmGx4XSt-r3-6" value="NickName" style="html=1;" vertex="1" parent="x_KAMn2RpfmGx4XSt-r3-1">
          <mxGeometry x="210" y="330" width="110" height="50" as="geometry" />
        </mxCell>
        <mxCell id="x_KAMn2RpfmGx4XSt-r3-7" value="PhoneNumber" style="html=1;" vertex="1" parent="x_KAMn2RpfmGx4XSt-r3-1">
          <mxGeometry x="340" y="330" width="110" height="50" as="geometry" />
        </mxCell>
        <mxCell id="x_KAMn2RpfmGx4XSt-r3-8" value="EmailAddress" style="html=1;" vertex="1" parent="x_KAMn2RpfmGx4XSt-r3-1">
          <mxGeometry x="470" y="330" width="110" height="50" as="geometry" />
        </mxCell>
        <mxCell id="x_KAMn2RpfmGx4XSt-r3-25" value="UserMgr" style="text;align=center;fontStyle=1;verticalAlign=middle;spacingLeft=3;spacingRight=3;strokeColor=none;rotatable=0;points=[[0,0.5],[1,0.5]];portConstraint=eastwest;fontSize=19;" vertex="1" parent="x_KAMn2RpfmGx4XSt-r3-1">
          <mxGeometry x="420" y="110" width="80" height="26" as="geometry" />
        </mxCell>
        <mxCell id="He20caQpJkefmqMjNLI--17" value="" style="shape=folder;fontStyle=1;spacingTop=10;tabWidth=40;tabHeight=14;tabPosition=left;html=1;" vertex="1" parent="x_KAMn2RpfmGx4XSt-r3-1">
          <mxGeometry x="-785" y="40" width="500" height="340" as="geometry" />
        </mxCell>
        <mxCell id="wo1Fu706Tqra_tc3UT-4-12" value="ProducerMgr" style="text;align=center;fontStyle=1;verticalAlign=middle;spacingLeft=3;spacingRight=3;strokeColor=none;rotatable=0;points=[[0,0.5],[1,0.5]];portConstraint=eastwest;fontSize=19;" vertex="1" parent="x_KAMn2RpfmGx4XSt-r3-1">
          <mxGeometry x="-575" y="64" width="80" height="26" as="geometry" />
        </mxCell>
        <mxCell id="wo1Fu706Tqra_tc3UT-4-30" style="edgeStyle=none;rounded=0;orthogonalLoop=1;jettySize=auto;html=1;startArrow=block;startFill=0;endArrow=none;endFill=0;fontSize=19;entryX=0;entryY=0.5;entryDx=0;entryDy=0;" edge="1" parent="x_KAMn2RpfmGx4XSt-r3-1" source="wo1Fu706Tqra_tc3UT-4-13" target="x_KAMn2RpfmGx4XSt-r3-3">
          <mxGeometry relative="1" as="geometry" />
        </mxCell>
        <mxCell id="wo1Fu706Tqra_tc3UT-4-31" style="edgeStyle=none;rounded=0;orthogonalLoop=1;jettySize=auto;html=1;entryX=0.5;entryY=0;entryDx=0;entryDy=0;startArrow=block;startFill=0;endArrow=none;endFill=0;fontSize=19;" edge="1" parent="x_KAMn2RpfmGx4XSt-r3-1" source="wo1Fu706Tqra_tc3UT-4-13" target="wo1Fu706Tqra_tc3UT-4-14">
          <mxGeometry relative="1" as="geometry" />
        </mxCell>
        <mxCell id="wo1Fu706Tqra_tc3UT-4-32" style="edgeStyle=none;rounded=0;orthogonalLoop=1;jettySize=auto;html=1;startArrow=block;startFill=0;endArrow=none;endFill=0;fontSize=19;" edge="1" parent="x_KAMn2RpfmGx4XSt-r3-1" source="wo1Fu706Tqra_tc3UT-4-13" target="wo1Fu706Tqra_tc3UT-4-15">
          <mxGeometry relative="1" as="geometry" />
        </mxCell>
        <mxCell id="wo1Fu706Tqra_tc3UT-4-33" style="edgeStyle=none;rounded=0;orthogonalLoop=1;jettySize=auto;html=1;entryX=0.25;entryY=0;entryDx=0;entryDy=0;startArrow=block;startFill=0;endArrow=none;endFill=0;fontSize=19;" edge="1" parent="x_KAMn2RpfmGx4XSt-r3-1" source="wo1Fu706Tqra_tc3UT-4-13" target="wo1Fu706Tqra_tc3UT-4-17">
          <mxGeometry relative="1" as="geometry" />
        </mxCell>
        <mxCell id="wo1Fu706Tqra_tc3UT-4-13" value="Producer" style="html=1;fontSize=19;" vertex="1" parent="x_KAMn2RpfmGx4XSt-r3-1">
          <mxGeometry x="-590" y="100" width="110" height="50" as="geometry" />
        </mxCell>
        <mxCell id="tuZ0kHktLN6jdNmARQme-3" style="edgeStyle=none;rounded=0;orthogonalLoop=1;jettySize=auto;html=1;entryX=0.25;entryY=0;entryDx=0;entryDy=0;startArrow=none;startFill=0;endArrow=none;endFill=0;fontSize=19;" edge="1" parent="x_KAMn2RpfmGx4XSt-r3-1" source="wo1Fu706Tqra_tc3UT-4-14" target="tuZ0kHktLN6jdNmARQme-2">
          <mxGeometry relative="1" as="geometry" />
        </mxCell>
        <mxCell id="wo1Fu706Tqra_tc3UT-4-14" value="PrivateTeacher" style="html=1;fontSize=19;" vertex="1" parent="x_KAMn2RpfmGx4XSt-r3-1">
          <mxGeometry x="-755" y="195" width="130" height="50" as="geometry" />
        </mxCell>
        <mxCell id="tuZ0kHktLN6jdNmARQme-4" style="edgeStyle=none;rounded=0;orthogonalLoop=1;jettySize=auto;html=1;startArrow=none;startFill=0;endArrow=none;endFill=0;fontSize=19;" edge="1" parent="x_KAMn2RpfmGx4XSt-r3-1" source="wo1Fu706Tqra_tc3UT-4-15" target="tuZ0kHktLN6jdNmARQme-2">
          <mxGeometry relative="1" as="geometry" />
        </mxCell>
        <mxCell id="wo1Fu706Tqra_tc3UT-4-15" value="TuitionCenter" style="html=1;fontSize=19;" vertex="1" parent="x_KAMn2RpfmGx4XSt-r3-1">
          <mxGeometry x="-595" y="195" width="130" height="50" as="geometry" />
        </mxCell>
        <mxCell id="tuZ0kHktLN6jdNmARQme-1" style="edgeStyle=none;rounded=0;orthogonalLoop=1;jettySize=auto;html=1;entryX=0.5;entryY=0;entryDx=0;entryDy=0;startArrow=none;startFill=0;endArrow=none;endFill=0;fontSize=19;" edge="1" parent="x_KAMn2RpfmGx4XSt-r3-1" source="wo1Fu706Tqra_tc3UT-4-17" target="tuZ0kHktLN6jdNmARQme-0">
          <mxGeometry relative="1" as="geometry" />
        </mxCell>
        <mxCell id="wo1Fu706Tqra_tc3UT-4-17" value="Landlord" style="html=1;fontSize=19;" vertex="1" parent="x_KAMn2RpfmGx4XSt-r3-1">
          <mxGeometry x="-415" y="195" width="110" height="50" as="geometry" />
        </mxCell>
        <mxCell id="wo1Fu706Tqra_tc3UT-4-18" value="" style="shape=folder;fontStyle=1;spacingTop=10;tabWidth=40;tabHeight=14;tabPosition=left;html=1;fontSize=19;" vertex="1" parent="x_KAMn2RpfmGx4XSt-r3-1">
          <mxGeometry x="390" y="478" width="450" height="342" as="geometry" />
        </mxCell>
        <mxCell id="wo1Fu706Tqra_tc3UT-4-19" value="PaymentMgr" style="text;align=center;fontStyle=1;verticalAlign=middle;spacingLeft=3;spacingRight=3;strokeColor=none;rotatable=0;points=[[0,0.5],[1,0.5]];portConstraint=eastwest;fontSize=19;" vertex="1" parent="x_KAMn2RpfmGx4XSt-r3-1">
          <mxGeometry x="560" y="499" width="80" height="26" as="geometry" />
        </mxCell>
        <mxCell id="wo1Fu706Tqra_tc3UT-4-52" style="edgeStyle=none;rounded=0;orthogonalLoop=1;jettySize=auto;html=1;startArrow=block;startFill=0;endArrow=none;endFill=0;fontSize=19;" edge="1" parent="x_KAMn2RpfmGx4XSt-r3-1" source="wo1Fu706Tqra_tc3UT-4-20" target="wo1Fu706Tqra_tc3UT-4-21">
          <mxGeometry relative="1" as="geometry" />
        </mxCell>
        <mxCell id="wo1Fu706Tqra_tc3UT-4-56" style="edgeStyle=none;rounded=0;orthogonalLoop=1;jettySize=auto;html=1;entryX=0;entryY=0.5;entryDx=0;entryDy=0;startArrow=none;startFill=0;endArrow=none;endFill=0;fontSize=19;" edge="1" parent="x_KAMn2RpfmGx4XSt-r3-1" source="wo1Fu706Tqra_tc3UT-4-20" target="wo1Fu706Tqra_tc3UT-4-25">
          <mxGeometry relative="1" as="geometry" />
        </mxCell>
        <mxCell id="wo1Fu706Tqra_tc3UT-4-20" value="Payment" style="html=1;fontSize=19;" vertex="1" parent="x_KAMn2RpfmGx4XSt-r3-1">
          <mxGeometry x="550" y="540" width="110" height="50" as="geometry" />
        </mxCell>
        <mxCell id="wo1Fu706Tqra_tc3UT-4-53" style="edgeStyle=none;rounded=0;orthogonalLoop=1;jettySize=auto;html=1;entryX=0.5;entryY=0;entryDx=0;entryDy=0;startArrow=block;startFill=0;endArrow=none;endFill=0;fontSize=19;" edge="1" parent="x_KAMn2RpfmGx4XSt-r3-1" source="wo1Fu706Tqra_tc3UT-4-21" target="wo1Fu706Tqra_tc3UT-4-22">
          <mxGeometry relative="1" as="geometry" />
        </mxCell>
        <mxCell id="wo1Fu706Tqra_tc3UT-4-54" style="edgeStyle=none;rounded=0;orthogonalLoop=1;jettySize=auto;html=1;entryX=0.5;entryY=0;entryDx=0;entryDy=0;startArrow=block;startFill=0;endArrow=none;endFill=0;fontSize=19;" edge="1" parent="x_KAMn2RpfmGx4XSt-r3-1" source="wo1Fu706Tqra_tc3UT-4-21" target="wo1Fu706Tqra_tc3UT-4-23">
          <mxGeometry relative="1" as="geometry" />
        </mxCell>
        <mxCell id="wo1Fu706Tqra_tc3UT-4-55" style="edgeStyle=none;rounded=0;orthogonalLoop=1;jettySize=auto;html=1;entryX=0.5;entryY=0;entryDx=0;entryDy=0;startArrow=block;startFill=0;endArrow=none;endFill=0;fontSize=19;" edge="1" parent="x_KAMn2RpfmGx4XSt-r3-1" source="wo1Fu706Tqra_tc3UT-4-21" target="wo1Fu706Tqra_tc3UT-4-24">
          <mxGeometry relative="1" as="geometry" />
        </mxCell>
        <mxCell id="wo1Fu706Tqra_tc3UT-4-21" value="ElectronicPayment" style="html=1;fontSize=19;" vertex="1" parent="x_KAMn2RpfmGx4XSt-r3-1">
          <mxGeometry x="522.5" y="624" width="165" height="50" as="geometry" />
        </mxCell>
        <mxCell id="wo1Fu706Tqra_tc3UT-4-22" value="BankTransfer" style="html=1;fontSize=19;" vertex="1" parent="x_KAMn2RpfmGx4XSt-r3-1">
          <mxGeometry x="405" y="710" width="110" height="50" as="geometry" />
        </mxCell>
        <mxCell id="wo1Fu706Tqra_tc3UT-4-23" value="Paynow" style="html=1;fontSize=19;" vertex="1" parent="x_KAMn2RpfmGx4XSt-r3-1">
          <mxGeometry x="530" y="710" width="110" height="50" as="geometry" />
        </mxCell>
        <mxCell id="wo1Fu706Tqra_tc3UT-4-24" value="CreditCard" style="html=1;fontSize=19;" vertex="1" parent="x_KAMn2RpfmGx4XSt-r3-1">
          <mxGeometry x="660" y="710" width="110" height="50" as="geometry" />
        </mxCell>
        <mxCell id="wo1Fu706Tqra_tc3UT-4-25" value="Receipt" style="html=1;fontSize=19;" vertex="1" parent="x_KAMn2RpfmGx4XSt-r3-1">
          <mxGeometry x="720" y="540" width="110" height="50" as="geometry" />
        </mxCell>
        <mxCell id="wo1Fu706Tqra_tc3UT-4-34" value="" style="shape=folder;fontStyle=1;spacingTop=10;tabWidth=40;tabHeight=14;tabPosition=left;html=1;" vertex="1" parent="x_KAMn2RpfmGx4XSt-r3-1">
          <mxGeometry x="-770" y="620" width="190" height="150" as="geometry" />
        </mxCell>
        <mxCell id="wo1Fu706Tqra_tc3UT-4-35" value="ConsumerMgr" style="text;align=center;fontStyle=1;verticalAlign=middle;spacingLeft=3;spacingRight=3;strokeColor=none;rotatable=0;points=[[0,0.5],[1,0.5]];portConstraint=eastwest;fontSize=19;" vertex="1" parent="x_KAMn2RpfmGx4XSt-r3-1">
          <mxGeometry x="-720" y="648" width="80" height="26" as="geometry" />
        </mxCell>
        <mxCell id="wo1Fu706Tqra_tc3UT-4-41" style="edgeStyle=none;rounded=0;orthogonalLoop=1;jettySize=auto;html=1;entryX=0;entryY=0.5;entryDx=0;entryDy=0;startArrow=block;startFill=0;endArrow=none;endFill=0;fontSize=19;" edge="1" parent="x_KAMn2RpfmGx4XSt-r3-1" source="wo1Fu706Tqra_tc3UT-4-38" target="x_KAMn2RpfmGx4XSt-r3-3">
          <mxGeometry relative="1" as="geometry" />
        </mxCell>
        <mxCell id="wo1Fu706Tqra_tc3UT-4-60" style="edgeStyle=none;rounded=0;orthogonalLoop=1;jettySize=auto;html=1;startArrow=none;startFill=0;endArrow=none;endFill=0;fontSize=19;" edge="1" parent="x_KAMn2RpfmGx4XSt-r3-1" source="wo1Fu706Tqra_tc3UT-4-38" target="wo1Fu706Tqra_tc3UT-4-44">
          <mxGeometry relative="1" as="geometry" />
        </mxCell>
        <mxCell id="tuZ0kHktLN6jdNmARQme-7" style="edgeStyle=none;rounded=0;orthogonalLoop=1;jettySize=auto;html=1;startArrow=none;startFill=0;endArrow=none;endFill=0;fontSize=19;" edge="1" parent="x_KAMn2RpfmGx4XSt-r3-1" source="wo1Fu706Tqra_tc3UT-4-38" target="tuZ0kHktLN6jdNmARQme-2">
          <mxGeometry relative="1" as="geometry" />
        </mxCell>
        <mxCell id="tuZ0kHktLN6jdNmARQme-8" style="edgeStyle=none;rounded=0;orthogonalLoop=1;jettySize=auto;html=1;entryX=0.25;entryY=1;entryDx=0;entryDy=0;startArrow=none;startFill=0;endArrow=none;endFill=0;fontSize=19;" edge="1" parent="x_KAMn2RpfmGx4XSt-r3-1" source="wo1Fu706Tqra_tc3UT-4-38" target="tuZ0kHktLN6jdNmARQme-0">
          <mxGeometry relative="1" as="geometry" />
        </mxCell>
        <mxCell id="wo1Fu706Tqra_tc3UT-4-38" value="Consumer" style="html=1;fontSize=19;" vertex="1" parent="x_KAMn2RpfmGx4XSt-r3-1">
          <mxGeometry x="-735" y="690" width="110" height="50" as="geometry" />
        </mxCell>
        <mxCell id="wo1Fu706Tqra_tc3UT-4-43" value="PurchaseMgr" style="text;align=center;fontStyle=1;verticalAlign=middle;spacingLeft=3;spacingRight=3;strokeColor=none;rotatable=0;points=[[0,0.5],[1,0.5]];portConstraint=eastwest;fontSize=19;" vertex="1" parent="x_KAMn2RpfmGx4XSt-r3-1">
          <mxGeometry x="110" y="570" width="80" height="26" as="geometry" />
        </mxCell>
        <mxCell id="wo1Fu706Tqra_tc3UT-4-47" style="edgeStyle=none;rounded=0;orthogonalLoop=1;jettySize=auto;html=1;entryX=0.5;entryY=0;entryDx=0;entryDy=0;startArrow=block;startFill=0;endArrow=none;endFill=0;fontSize=19;" edge="1" parent="x_KAMn2RpfmGx4XSt-r3-1" source="wo1Fu706Tqra_tc3UT-4-44" target="wo1Fu706Tqra_tc3UT-4-45">
          <mxGeometry relative="1" as="geometry" />
        </mxCell>
        <mxCell id="wo1Fu706Tqra_tc3UT-4-49" style="edgeStyle=none;rounded=0;orthogonalLoop=1;jettySize=auto;html=1;entryX=0.5;entryY=0;entryDx=0;entryDy=0;startArrow=block;startFill=0;endArrow=none;endFill=0;fontSize=19;" edge="1" parent="x_KAMn2RpfmGx4XSt-r3-1" source="wo1Fu706Tqra_tc3UT-4-44" target="wo1Fu706Tqra_tc3UT-4-46">
          <mxGeometry relative="1" as="geometry" />
        </mxCell>
        <mxCell id="wo1Fu706Tqra_tc3UT-4-58" style="edgeStyle=none;rounded=0;orthogonalLoop=1;jettySize=auto;html=1;startArrow=none;startFill=0;endArrow=none;endFill=0;fontSize=19;" edge="1" parent="x_KAMn2RpfmGx4XSt-r3-1" source="wo1Fu706Tqra_tc3UT-4-44" target="wo1Fu706Tqra_tc3UT-4-20">
          <mxGeometry relative="1" as="geometry" />
        </mxCell>
        <mxCell id="wo1Fu706Tqra_tc3UT-4-44" value="PurchaseOrder" style="html=1;fontSize=19;" vertex="1" parent="x_KAMn2RpfmGx4XSt-r3-1">
          <mxGeometry x="90" y="630" width="150" height="50" as="geometry" />
        </mxCell>
        <mxCell id="wo1Fu706Tqra_tc3UT-4-45" value="RoomRental" style="html=1;fontSize=19;" vertex="1" parent="x_KAMn2RpfmGx4XSt-r3-1">
          <mxGeometry x="20" y="730" width="110" height="50" as="geometry" />
        </mxCell>
        <mxCell id="wo1Fu706Tqra_tc3UT-4-46" value="TuitionOrder" style="html=1;fontSize=19;" vertex="1" parent="x_KAMn2RpfmGx4XSt-r3-1">
          <mxGeometry x="180" y="730" width="110" height="50" as="geometry" />
        </mxCell>
        <mxCell id="tuZ0kHktLN6jdNmARQme-0" value="RoomInfo" style="html=1;fontSize=19;" vertex="1" parent="x_KAMn2RpfmGx4XSt-r3-1">
          <mxGeometry x="-415" y="290" width="110" height="50" as="geometry" />
        </mxCell>
        <mxCell id="tuZ0kHktLN6jdNmARQme-2" value="CourseInfo" style="html=1;fontSize=19;" vertex="1" parent="x_KAMn2RpfmGx4XSt-r3-1">
          <mxGeometry x="-650" y="300" width="110" height="50" as="geometry" />
        </mxCell>
      </root>
    </mxGraphModel>
  </diagram>
</mxfile>
